<?xml version="1.0" encoding="UTF-8" standalone="no"?>
<!-- Created with Inkscape (http://www.inkscape.org/) -->

<svg
   version="1.1"
   id="svg1"
   width="532.01337"
   height="531.99786"
   viewBox="0 0 532.01337 531.99787"
   sodipodi:docname="download (1).png"
   xmlns:inkscape="http://www.inkscape.org/namespaces/inkscape"
   xmlns:sodipodi="http://sodipodi.sourceforge.net/DTD/sodipodi-0.dtd"
   xmlns="http://www.w3.org/2000/svg"
   xmlns:svg="http://www.w3.org/2000/svg">
  <defs
     id="defs1" />
  <sodipodi:namedview
     id="namedview1"
     pagecolor="#ffffff"
     bordercolor="#666666"
     borderopacity="1.0"
     inkscape:showpageshadow="2"
     inkscape:pageopacity="0.0"
     inkscape:pagecheckerboard="0"
     inkscape:deskcolor="#d1d1d1" />
  <g
     inkscape:groupmode="layer"
     inkscape:label="Image"
     id="g1"
     transform="translate(-77.438408,-64.207618)">
    <path
       style="fill:#000000"
       d="m 77.43841,576.54262 v -19.66288 l 86.66787,-86.67544 86.66786,-86.67543 -53.99647,-53.98412 -53.99646,-53.98412 20.31296,-20.34472 20.31295,-20.34472 20.87315,20.84256 c 19.31436,19.28607 21.06689,20.70501 23.46735,19.00049 1.4268,-1.01315 41.09344,-32.73055 88.14808,-70.48313 l 85.55389,-68.64104 -15.65909,-15.69999 -15.65908,-15.69999 19.99123,-19.991238 19.99124,-19.99123 99.66896,99.675598 99.66895,99.6756 -20.00414,19.97079 -20.00414,19.97079 -15.32293,-15.27945 c -13.26793,-13.2303 -15.56694,-15.01589 -17.14243,-13.31413 -3.98529,4.30468 -135.63164,173.32007 -136.24571,174.92033 -0.37137,0.96776 7.77478,10.13332 18.69134,21.0304 l 19.34958,19.31506 -20.32306,20.35484 -20.32305,20.35483 -54.01602,-54.00397 -54.01602,-54.00397 -86.65789,86.66558 -86.65789,86.66558 H 97.10893 77.43841 Z M 429.34205,320.45545 c 36.98033,-47.43748 67.43167,-86.85398 67.66965,-87.59222 0.23797,-0.73825 -12.08253,-13.84684 -27.37889,-29.13019 l -27.81158,-27.78793 -84.52474,67.65945 c -46.4886,37.2127 -85.41239,68.48037 -86.49731,69.48372 -1.70797,1.57956 4.193,7.99177 43.99276,47.80407 25.28093,25.2889 46.26859,45.94229 46.63924,45.89644 0.37065,-0.0459 30.93054,-38.89586 67.91087,-86.33334 z"
       id="path1" />
  </g>
</svg>
