<?xml version="1.0" encoding="UTF-8" standalone="no"?>
<svg
   version="1.1"
   width="683"
   height="682"
   xmlns="http://www.w3.org/2000/svg">
    <path
       style="fill:#FFF"
       d="m 491.32363,532.01897 -85.32488,-85.30614 -13.57851,16.97997 -13.57852,16.97998 19.56184,19.66667 19.56185,19.66667 -19.97194,20.00529 -19.97194,20.00529 -53.35082,-53.33863 c -29.34295,-29.33624 -53.95016,-53.33862 -54.68269,-53.33862 -0.73253,0 -33.7277,32.4 -73.32261,72 l -71.99074,72 h -19.6713 -19.671291 v -19.6713 -19.67129 l 72.000001,-71.99075 c 39.6,-39.5949 72,-72.59008 72,-73.3226 0,-0.73253 -24.00238,-25.33974 -53.33863,-54.68269 L 122.65483,304.65 l 20.00581,-19.97246 20.00582,-19.97247 20.99947,20.89589 20.99948,20.89588 11.47563,-9.65748 c 6.31159,-5.31162 13.80463,-11.57726 16.65121,-13.92365 l 5.17559,-4.26616 -86.32405,-86.3317 L 65.319749,105.98614 85.667709,85.669953 106.01567,65.353761 361.6813,321.02199 617.34694,576.69023 596.99772,597.00768 576.6485,617.32512 Z m -137.75089,-110.3143 12.18268,-15.26015 -43.7419,-43.75697 -43.7419,-43.75696 -15.46977,12.75295 c -8.50837,7.01413 -16.05316,13.26951 -16.7662,13.90086 -0.78719,0.69701 16.99406,19.44401 45.26748,47.72608 36.32211,36.33324 46.95136,46.25662 48.32542,45.11626 0.96882,-0.80406 7.24371,-8.32899 13.94419,-16.72207 z m 104.74268,-84.04804 c -10.8075,-10.82554 -19.65,-20.15436 -19.65,-20.73071 0,-0.57635 15.0402,-19.72349 33.42266,-42.54921 l 33.42265,-41.50131 -27.07712,-27.10131 c -14.89242,-14.90573 -27.68262,-27.09718 -28.42266,-27.09213 -0.74004,0.005 -19.50356,15.00505 -41.69671,33.33333 -22.19315,18.32828 -40.80065,33.32415 -41.35001,33.32415 -0.54935,0 -9.88075,-8.89676 -20.73644,-19.77058 l -19.73762,-19.77058 40.29819,-33.22942 c 22.164,-18.27618 40.95343,-33.66263 41.75429,-34.19211 0.88813,-0.58717 -4.7798,-7.22127 -14.53073,-17.0077 l -15.98684,-16.04501 19.99123,-19.991235 19.99124,-19.991237 99.66896,99.675602 99.66895,99.6756 -20.00459,19.97124 -20.0046,19.97125 -15.71258,-15.67164 -15.71257,-15.67164 -33.78779,42.02373 c -18.58328,23.11305 -33.87106,42.02373 -33.97285,42.02373 -0.10179,0 -9.02757,-8.85726 -19.83506,-19.68281 z"
       id="path1" />
</svg>
